<?xml version="1.0" ?><svg enable-background="new 0 0 24 24" id="Layer_1" version="1.1" viewBox="0 0 24 24" xml:space="preserve" xmlns="http://www.w3.org/2000/svg" xmlns:xlink="http://www.w3.org/1999/xlink"><g><path d="M12,0C5.3833008,0,0,5.3828125,0,12s5.3833008,12,12,12s12-5.3828125,12-12S18.6166992,0,12,0z" fill="#303C42"/><path d="M12,23C5.9345703,23,1,18.0654297,1,12S5.9345703,1,12,1s11,4.9345703,11,11S18.0654297,23,12,23z" fill="#FED600"/><path d="M19.119751,3.630249C20.7561646,5.5509644,21.75,8.0349121,21.75,10.75   c0,6.0654297-4.9345703,11-11,11c-2.7150879,0-5.1990356-0.9938354-7.119751-2.630249C5.6494751,21.4898682,8.6496582,23,12,23   c6.0654297,0,11-4.9345703,11-11C23,8.6496582,21.4898682,5.6494751,19.119751,3.630249z" fill="#010101" opacity="0.1"/><path d="M17.6464844,16.6464844l-0.1412964,0.1412964C16.8007813,16.1499634,15.1030884,15.0007324,12,15   c-0.0009766,0-0.0019531,0-0.0029297,0c-3.1016235,0-4.7984009,1.1494751-5.5024414,1.7875977l-0.1411133-0.1411133   c-0.1953125-0.1953125-0.5117188-0.1953125-0.7070313,0s-0.1953125,0.5117188,0,0.7070313l1,1   C6.7441406,18.4511719,6.8720703,18.5,7,18.5s0.2558594-0.0488281,0.3535156-0.1464844   c0.1953125-0.1953125,0.1953125-0.5117188,0-0.7070313L7.2001343,17.493103C7.7805786,16.9766846,9.2420044,16,11.9970703,16   C11.9980469,16,11.9990234,16,12,16c2.7587891,0.0007324,4.2209473,0.9784546,4.7999268,1.493042l-0.1534424,0.1534424   c-0.1953125,0.1953125-0.1953125,0.5117188,0,0.7070313C16.7441406,18.4511719,16.8720703,18.5,17,18.5   s0.2558594-0.0488281,0.3535156-0.1464844l1-1c0.1953125-0.1953125,0.1953125-0.5117188,0-0.7070313   S17.8417969,16.4511719,17.6464844,16.6464844z" fill="#303C42"/><path d="M18.5,7h-1.5585938c-1.0776367,0-2.0307617,0.6865234-2.371582,1.7089844l-0.5449219,1.6337891   c-0.0874062,0.2617188,0.0541992,0.5449219,0.315918,0.6328125c0.0527344,0.0175781,0.105957,0.0253906,0.1582031,0.0253906   c0.2094727,0,0.4042969-0.1328125,0.4741211-0.3417969l0.5449219-1.6337891C15.7231445,8.4121094,16.2949219,8,16.9414063,8H18.5   C18.7763672,8,19,7.7763672,19,7.5S18.7763672,7,18.5,7z" fill="#303C42"/><path d="M7.0581055,8c0.6469727,0,1.21875,0.4121094,1.4228516,1.0263672L9.0239258,10.65625   c0.0698242,0.2089844,0.2651367,0.3417969,0.4746094,0.3417969c0.0522461,0,0.1054688-0.0078125,0.1582031-0.0253906   c0.2617188-0.0878906,0.4033203-0.3710938,0.3164063-0.6328125L9.4301758,8.7099609C9.0898438,7.6875,8.1362305,7,7.0581055,7H5.5   C5.2236328,7,5,7.2236328,5,7.5S5.2236328,8,5.5,8H7.0581055z" fill="#303C42"/><path d="M14.4995117,7c0.1518555,0,0.3022461-0.0693359,0.4003906-0.2001953L15.5,6   c0.4692383-0.6259766,1.2167969-1,2-1C17.7763672,5,18,4.7763672,18,4.5S17.7763672,4,17.5,4   c-1.0961914,0-2.1430664,0.5234375-2.7998047,1.4003906l-0.6000977,0.7998047   c-0.1655273,0.2207031-0.1210938,0.5341797,0.0996094,0.7001953C14.2900391,6.9677734,14.3950195,7,14.4995117,7z" fill="#303C42"/><path d="M6.5,5c0.7832031,0,1.5307617,0.3740234,2,1l0.6000977,0.7998047   C9.1982422,6.9306641,9.3486328,7,9.5004883,7C9.6049805,7,9.7099609,6.9677734,9.800293,6.9003906   c0.2207031-0.1660156,0.2651367-0.4794922,0.0996094-0.7001953L9.2998047,5.4003906C8.6430664,4.5234375,7.5961914,4,6.5,4   C6.2236328,4,6,4.2236328,6,4.5S6.2236328,5,6.5,5z" fill="#303C42"/><linearGradient gradientUnits="userSpaceOnUse" id="SVGID_1_" x1="1.1248375" x2="22.8751621" y1="6.9288282" y2="17.0711708"><stop offset="0" style="stop-color:#FFFFFF;stop-opacity:0.2"/><stop offset="1" style="stop-color:#FFFFFF;stop-opacity:0"/></linearGradient><path d="M12,0C5.3833008,0,0,5.3828125,0,12s5.3833008,12,12,12s12-5.3828125,12-12S18.6166992,0,12,0z" fill="url(#SVGID_1_)"/></g><g/><g/><g/><g/><g/><g/><g/><g/><g/><g/><g/><g/><g/><g/><g/></svg>